<svg width="136" height="136" viewBox="0 0 136 136" fill="none"
    xmlns="http://www.w3.org/2000/svg">
    <g clip-path="url(#clip0)">
        <path d="M63.3896 60.3203C62.3542 60.866 61.4364 61.6103 60.6886 62.5107C59.9409 63.4111 59.3778 64.4499 59.0315 65.5679C58.6852 66.686 58.5625 67.8612 58.6705 69.0266C58.7784 70.1921 59.1148 71.3248 59.6605 72.3602C60.2062 73.3956 60.9505 74.3134 61.8509 75.0612C62.7513 75.8089 63.7901 76.372 64.9081 76.7183C66.0261 77.0646 67.2014 77.1873 68.3668 77.0793C69.5323 76.9714 70.665 76.635 71.7004 76.0893C72.7358 75.5436 73.6536 74.7993 74.4014 73.8989C75.1491 72.9985 75.7122 71.9597 76.0585 70.8417C76.4048 69.7237 76.5275 68.5484 76.4195 67.383C76.3116 66.2176 75.9752 65.0848 75.4295 64.0494C74.8838 63.014 74.1395 62.0962 73.2391 61.3484C72.3387 60.6007 71.2999 60.0376 70.1819 59.6913C69.0639 59.345 67.8886 59.2224 66.7232 59.3303C65.5577 59.4382 64.425 59.7746 63.3896 60.3203ZM53.7242 95.5296L51.7513 96.0042C37.0567 99.5617 26.6867 97.9198 23.3044 91.5023C19.9222 85.0849 24.4292 75.6023 35.6697 65.491L37.1784 64.1354L38.5778 65.6021C42.2765 69.4352 46.2814 72.9605 50.5528 76.1429L51.3389 76.7319L51.3804 77.7132C51.5873 83.036 52.2317 88.3327 53.3072 93.5498L53.7242 95.5296ZM36.9858 69.9453C28.5882 77.9083 24.7716 85.3315 26.9979 89.5557C29.2223 93.7763 37.5032 94.8236 48.8207 92.4008C48.0056 87.9317 47.4843 83.414 47.2602 78.8768C43.6424 76.1292 40.2102 73.1455 36.9858 69.9453ZM97.898 72.2484L96.4967 70.778C92.7994 66.9445 88.7937 63.4209 84.5199 60.2428L83.7338 59.6539L83.6923 58.6726C83.4847 53.3494 82.8415 48.0522 81.7691 42.834L81.3502 40.8505L83.3249 40.3703C98.0159 36.8148 108.386 38.4567 111.77 44.8778C115.154 51.2989 110.645 60.7779 99.4084 70.8872L97.898 72.2484ZM87.8143 57.5033C91.602 60.4007 95.0489 63.3929 98.0886 66.4348C106.488 58.4662 110.301 51.0449 108.077 46.8244C105.85 42.6002 97.5712 41.5565 86.2538 43.9793C87.0708 48.4481 87.5921 52.9659 87.8143 57.5033ZM36.9503 69.9405L35.5528 68.4774C25.1351 57.5491 21.3881 47.7585 25.2674 41.6069C29.0709 35.5707 39.8115 34.6717 53.9834 39.2648L55.9147 39.8907L55.3394 41.8376C53.862 46.957 52.8039 52.1882 52.1757 57.4794L52.053 58.453L51.2257 58.9833C46.7173 61.8332 42.4478 65.0442 38.459 68.5849L36.9503 69.9405ZM31.0591 41.8185C30.0712 42.3392 29.3103 43.0134 28.7965 43.8258C26.2457 47.8689 29.4668 55.5535 37.2137 64.1309C40.6811 61.1869 44.3368 58.472 48.1574 56.0035C48.7371 51.4962 49.6128 47.0319 50.7791 42.6397C42.0778 40.0712 34.9589 39.7631 31.0591 41.8185ZM105.962 98.2457C105.958 98.2477 105.958 98.2477 105.962 98.2457C100.709 101.014 91.8791 100.614 81.091 97.1154L79.1598 96.4895L79.735 94.5425C81.2111 89.4225 82.2673 84.1907 82.8931 78.899L83.0158 77.9253L83.8395 77.397C88.3513 74.5479 92.6241 71.3368 96.6155 67.7953L98.1241 66.4397L99.5273 67.9044C109.934 78.8293 113.686 88.6216 109.805 94.7695C108.855 96.2484 107.528 97.4481 105.962 98.2457ZM84.2954 93.7404C92.9966 96.3089 100.116 96.617 104.015 94.5616L104.019 94.5597C105.003 94.041 105.768 93.3648 106.278 92.5543C108.829 88.5112 105.609 80.821 97.8588 72.2455C94.391 75.1913 90.734 77.9069 86.9114 80.3749C86.3358 84.883 85.4619 89.348 84.2954 93.7404ZM86.2699 43.9473L84.2989 44.4256C79.1199 45.7125 74.055 47.421 69.1547 49.5341L68.2533 49.9149L67.3807 49.4658C62.6632 46.9905 57.7508 44.9057 52.6928 43.2325L50.7616 42.6066L51.3368 40.6596C55.5566 26.3782 62.3654 18.028 69.5002 18.2947C76.7675 18.5716 82.7262 27.1966 85.8546 41.9619L86.2699 43.9473ZM68.4345 45.3167C72.846 43.4815 77.1737 41.9967 81.3285 40.8808C78.6352 29.64 74.1129 22.6412 69.3358 22.4601C64.5847 22.2748 59.4396 29.1076 55.9322 39.9239C60.2134 41.4452 64.3899 43.2467 68.4345 45.3167ZM70.6161 116.874C69.0717 117.717 67.3309 118.134 65.5723 118.082C58.3069 117.809 52.3483 109.184 49.2235 94.4163L48.8009 92.4348L50.7719 91.9565C55.5946 90.7853 60.6889 89.066 65.9068 86.8482L66.8118 86.4654L67.6807 86.9165C72.4015 89.3896 77.3155 91.4749 82.3743 93.1515L84.3055 93.7775L83.7303 95.7244C80.5223 106.599 75.8613 114.11 70.6161 116.874ZM53.744 95.4956C56.4373 106.736 60.9615 113.739 65.7386 113.92C70.4705 114.078 75.6256 107.273 79.1423 96.4563C74.8597 94.9329 70.6815 93.1308 66.6343 91.0616C62.4391 92.8198 58.1331 94.3009 53.744 95.4956ZM77.0214 86.1854C73.9878 87.7843 70.7994 89.2951 67.5414 90.6825L66.6363 91.0653L65.7637 90.6162C62.6604 89.0094 59.625 87.2749 56.6652 85.417C53.7088 83.5545 50.8309 81.5704 48.0389 79.4696L47.2565 78.8787L47.2113 77.8993C47.0562 74.4087 47.0461 70.9131 47.181 67.4216C47.316 63.9781 47.6061 60.4623 48.0348 56.9771L48.1574 56.0035L48.9848 55.4732C54.8819 51.6965 61.088 48.4256 67.5368 45.6957L68.4382 45.3148L69.307 45.7659C75.5178 48.9785 81.4481 52.7064 87.0356 56.9105L87.8217 57.4995L87.8631 58.4808C88.1811 65.4663 87.9044 72.4663 87.036 79.4049L86.917 80.3767L86.0933 80.905C83.1072 82.8084 80.0551 84.5866 77.0214 86.1854ZM66.8173 86.4578C72.4883 83.9918 77.7741 81.206 83.0175 77.9197C83.7171 71.8579 83.9565 65.7519 83.7338 59.6539C78.8319 56.0183 73.6578 52.7649 68.2572 49.9223C62.6504 52.3545 57.2361 55.208 52.0606 58.4585C51.3512 64.5201 51.1105 70.6275 51.3407 76.7262C56.2474 80.3548 61.421 83.6079 66.8173 86.4578Z" fill="#5ED3F3"/>
    </g>
    <defs>
        <clipPath id="clip0">
            <rect width="100" height="100" fill="white" transform="translate(0 47.2843) rotate(-27.7908)"/>
        </clipPath>
    </defs>
</svg>
