<svg width="199" height="199" viewBox="0 0 199 199" fill="none"
    xmlns="http://www.w3.org/2000/svg">
    <g clip-path="url(#clip0)">
        <path d="M31.3651 68.1266L-3.70741e-05 136.253L136.253 198.983L198.983 62.7303L62.7302 0L31.3651 68.1266Z" fill="#007ACC"/>
        <path d="M61.2874 82.4509L58.6755 88.0105L76.4097 96.1752L53.2093 146.568L65.7542 152.343L88.9546 101.951L106.689 110.116L109.208 104.644C110.602 101.616 111.702 99.0555 111.646 98.9509C111.62 98.8348 100.848 93.8225 87.7538 87.8202L63.9121 76.9223L61.2882 82.4506L61.2874 82.4509Z" fill="white"/>
        <path d="M143.728 113.477C146.79 115.936 148.722 118.685 149.989 122.31C150.626 124.228 151.36 127.529 151.243 128.182C151.206 128.375 143.448 129.626 138.833 130.201C138.663 130.228 138.403 129.426 138.217 128.292C137.64 124.934 136.31 122.984 133.588 121.496C129.587 119.312 125.931 120.251 124.29 123.872C123.802 124.932 123.664 125.629 123.699 126.693C123.741 128.993 124.91 130.894 129.153 135.626C136.975 144.313 139.875 149.003 140.658 154.134C141.535 159.859 138.958 167.164 134.59 171.47C129.818 176.141 122.682 177.522 114.546 175.322C112.022 174.658 106.515 172.044 104.215 170.435C99.1921 166.943 95.2457 161.85 93.6778 156.829C93.0607 154.867 92.2795 150.13 92.5508 149.94C92.6554 149.884 93.3767 149.797 94.173 149.718C94.938 149.65 97.8385 149.386 100.578 149.128L105.539 148.659L105.803 150.249C106.143 152.528 107.546 156.084 108.692 157.581C111.983 161.875 118.102 164.299 122.258 163.014C124.04 162.446 125.107 161.495 125.913 159.743C126.64 158.164 126.764 157.383 126.489 155.815C126.127 153.814 124.552 151.541 119.634 146.054C113.999 139.789 111.838 136.514 110.444 132.255C109.64 129.788 109.4 126.322 109.839 123.719C110.206 121.556 112.296 116.673 113.603 114.916C118.179 108.792 125.485 106.415 133.529 108.415C136.139 109.066 141.639 111.808 143.728 113.478L143.728 113.477Z" fill="white"/>
    </g>
    <defs>
        <clipPath id="clip0">
            <rect width="150" height="150" fill="white" transform="translate(62.7302) rotate(24.7211)"/>
        </clipPath>
    </defs>
</svg>
